<?xml version="1.0" encoding="UTF-8" standalone="no"?>
<!DOCTYPE svg PUBLIC "-//W3C//DTD SVG 1.1//EN" "http://www.w3.org/Graphics/SVG/1.1/DTD/svg11.dtd">
<svg version="1.1" xmlns="http://www.w3.org/2000/svg" xmlns:xlink="http://www.w3.org/1999/xlink" preserveAspectRatio="xMidYMid meet" viewBox="0 0 640 640"><defs><path d="M80.41 340.64L94.66 354.89L300.99 561.22L332.94 592.47L360.74 563.95L346.85 550.06L123.17 326.38L108.92 312.12L80.41 340.64Z" id="a1fm4C0U6g"></path><path d="M317.33 103.72L304.39 121.06L320.55 133.11L485.62 256.28L501.78 268.34L525.89 236.02L509.73 223.97L344.66 100.8L330.68 90.37L317.33 103.72Z" id="a2ImwgCvKE"></path><path d="M516.84 341.66L496.98 362.5L318.01 550.43L304.47 564.64L332.95 592.49L363.04 561.6L363.04 561.6L526.18 390.32L546.03 369.47L559.05 355.8L558.81 353.8L530.74 327.07L516.84 341.66Z" id="e7gYME4C6"></path><path d="M312.44 320.48L312.44 360.8L521.78 360.8L521.78 320.48L332.61 320.48L312.44 320.48Z" id="d2LbyfEobV"></path><path d="M318.34 102.7L94.66 326.38L80.41 340.64L108.92 369.15L123.17 354.89L346.85 131.2L361.11 116.94L345.81 101.65L330.68 90.36L318.34 102.7Z" id="bTdAbd8mb"></path><path d="M208.37 50.64L237.51 145.8L332.6 145.59L255.61 204.17L285.16 299.19L208.37 240.25L131.51 299.19L161.12 204.17L84.06 145.59L179.16 145.8L208.37 50.64Z" id="b7nS27JcB5"></path><path d="M503.36 321.79L508.75 365.71L555.01 360.04L559.05 355.79L554.11 315.56L503.36 321.79Z" id="b2Nfr4mbi2"></path></defs><g><g><g><use xlink:href="#a1fm4C0U6g" opacity="1" fill="#000000" fill-opacity="1"></use><g><use xlink:href="#a1fm4C0U6g" opacity="1" fill-opacity="0" stroke="#000000" stroke-width="1" stroke-opacity="0"></use></g></g><g><use xlink:href="#a2ImwgCvKE" opacity="1" fill="#000000" fill-opacity="1"></use><g><use xlink:href="#a2ImwgCvKE" opacity="1" fill-opacity="0" stroke="#000000" stroke-width="1" stroke-opacity="0"></use></g></g><g><use xlink:href="#e7gYME4C6" opacity="1" fill="#000000" fill-opacity="1"></use><g><use xlink:href="#e7gYME4C6" opacity="1" fill-opacity="0" stroke="#000000" stroke-width="1" stroke-opacity="0"></use></g></g><g><use xlink:href="#d2LbyfEobV" opacity="1" fill="#000000" fill-opacity="1"></use><g><use xlink:href="#d2LbyfEobV" opacity="1" fill-opacity="0" stroke="#000000" stroke-width="1" stroke-opacity="0"></use></g></g><g><use xlink:href="#bTdAbd8mb" opacity="1" fill="#000000" fill-opacity="1"></use><g><use xlink:href="#bTdAbd8mb" opacity="1" fill-opacity="0" stroke="#000000" stroke-width="1" stroke-opacity="0"></use></g></g><g><use xlink:href="#b7nS27JcB5" opacity="1" fill="#ff0000" fill-opacity="1"></use><g><use xlink:href="#b7nS27JcB5" opacity="1" fill-opacity="0" stroke="#000000" stroke-width="6.03" stroke-opacity="1"></use></g></g><g><use xlink:href="#b2Nfr4mbi2" opacity="1" fill="#000000" fill-opacity="1"></use><g><use xlink:href="#b2Nfr4mbi2" opacity="1" fill-opacity="0" stroke="#000000" stroke-width="1" stroke-opacity="0"></use></g></g></g></g></svg>
